{"accessors":[{"bufferView":0,"componentType":5123,"count":2880,"max":[558],"min":[0],"type":"SCALAR"},{"bufferView":1,"componentType":5126,"count":559,"max":[0.9999997019767761,1.0,0.9999993443489075],"min":[-0.9999990463256836,-1.0,-1.0],"type":"VEC3"},{"bufferView":2,"componentType":5126,"count":559,"max":[1.0,1.0,1.0],"min":[-1.0,-1.0,-1.0],"type":"VEC3"},{"bufferView":3,"componentType":5126,"count":559,"max":[1.0,0.9999999403953552],"min":[0.0,0.0],"type":"VEC2"}],"asset":{"generator":"Verge3D for Blender v4.13.0","version":"2.0"},"bufferViews":[{"buffer":0,"byteLength":5760,"byteOffset":0,"target":34963},{"buffer":0,"byteLength":6708,"byteOffset":5760,"target":34962},{"buffer":0,"byteLength":6708,"byteOffset":12468,"target":34962},{"buffer":0,"byteLength":4472,"byteOffset":19176,"target":34962}],"buffers":[{"byteLength":23648,"uri":"sun.bin"}],"cameras":[{"extensions":{"S8S_v3d_camera":{"controls":"ORBIT","enablePan":true,"moveSpeed":1.0,"orbitMaxDistance":100.0,"orbitMaxPolarAngle":3.1415927410125732,"orbitMaxZoom":100.0,"orbitMinDistance":0.0,"orbitMinPolarAngle":0.0,"orbitMinZoom":0.009999999776482582,"orbitTarget":[0.0,0.0,-0.0],"rotateSpeed":1.0,"viewportFitInitialAspect":1.7777777777777777,"viewportFitType":"AUTO"}},"name":"Camera","perspective":{"aspectRatio":1.7777777777777777,"yfov":0.39959648408210363,"zfar":100.0,"znear":0.10000000149011612},"type":"perspective"}],"extensions":{"S8S_v3d_lights":{"lights":[{"color":[1.0,1.0,1.0],"decay":2,"distance":31.622776955095866,"intensity":1000.0,"name":"Light","power":1000.0,"profile":"blender","shadow":{"bias":-0.0018,"cameraFar":31.622776955095866,"cameraFov":0,"cameraNear":0.05000000074505806,"enabled":true,"expBias":2.5,"mapSize":512,"radius":1.0,"slopeScaledBias":2.5},"type":"point"}]}},"extensionsUsed":["S8S_v3d_materials","S8S_v3d_camera","S8S_v3d_lights","S8S_v3d_mesh","S8S_v3d_node","S8S_v3d_scene"],"materials":[{"alphaMode":"OPAQUE","extensions":{"S8S_v3d_materials":{"gtaoVisible":true,"materialIndex":0,"nodeGraph":{"edges":[{"fromNode":0,"fromOutput":0,"toInput":0,"toNode":1},{"fromNode":2,"fromOutput":0,"toInput":0,"toNode":3},{"fromNode":4,"fromOutput":0,"toInput":0,"toNode":5},{"fromNode":3,"fromOutput":0,"toInput":0,"toNode":6},{"fromNode":6,"fromOutput":0,"toInput":0,"toNode":0},{"fromNode":5,"fromOutput":0,"toInput":27,"toNode":0}],"nodes":[{"inputs":[[1.0,1.0,1.0,1.0],0.0,1.0,1.5,1.0,false,[0.0,0.0,0.0],0.0,0.0,[1.0,0.20000000298023224,0.10000000149011612],0.004999999888241291,1.399999976158142,0.0,0.5,[1.0,1.0,1.0,1.0],0.0,0.0,[0.0,0.0,0.0],0.0,0.0,0.029999999329447746,1.5,[1.0,1.0,1.0,1.0],[0.0,0.0,0.0],0.0,0.5,[1.0,1.0,1.0,1.0],[1.0,0.1725609302520752,0.00024987146025523543,1.0],87.80000305175781,0.0,1.3300000429153442],"is_active_output":false,"name":"Principled BSDF","outputs":[[0,0,0,0]],"type":"BSDF_PRINCIPLED_BL"},{"inputs":[[0,0,0,0],[0,0,0,0],[0.0,0.0,0.0],0.0],"is_active_output":true,"name":"Material Output","outputs":[],"type":"OUTPUT_MATERIAL_BL"},{"dispersionFactor":1.0,"falloffFactor":0.0,"inputs":[[0.0,0.0,0.0],0.0,25.599998474121094,2.0,0.5,2.0,0.0,1.0,1.1999999284744263],"is_active_output":false,"name":"Noise Texture","noiseType":"FBM","outputs":[0.0,[0.800000011920929,0.800000011920929,0.800000011920929,1.0]],"type":"TEX_NOISE_BL"},{"curve":{"input":[0.03863624483346939,0.48181822896003723,0.7249999642372131],"interpolation":"LINEAR","output":[0.047946780920028687,0.025007516145706177,0.00012964443885721266,1.0,0.4095810353755951,0.05884411185979843,0.0,1.0,1.0,0.37323787808418274,9.262254025088623e-05,1.0]},"inputs":[0.5],"is_active_output":false,"name":"Color Ramp","outputs":[[0.800000011920929,0.800000011920929,0.800000011920929,1.0],0.0],"type":"VALTORGB_BL"},{"inputs":[1.5,[0.0,0.0,0.0]],"is_active_output":false,"name":"Fresnel","outputs":[0.0],"type":"FRESNEL_BL"},{"curve":{"input":[0.39999982714653015,0.8695456981658936],"interpolation":"LINEAR","output":[0.0,0.0,0.0,1.0,0.4169056713581085,0.006850282661616802,0.0010246033780276775,1.0]},"inputs":[0.5],"is_active_output":false,"name":"Color Ramp.001","outputs":[[0.800000011920929,0.800000011920929,0.800000011920929,1.0],0.0],"type":"VALTORGB_BL"},{"inputs":[[0.0,0.0,0.0],[0.0,0.0,0.0],[0.0,0.0,0.0],1.0],"is_active_output":false,"name":"Vector Math","operation":"ADD","outputs":[[0.0,0.0,0.0],0.0],"type":"VECT_MATH_BL"}]}}},"name":"Material.002"},{"alphaMode":"OPAQUE","extensions":{"S8S_v3d_materials":{"gtaoVisible":true,"materialIndex":0,"nodeGraph":{"edges":[{"fromNode":1,"fromOutput":0,"toInput":0,"toNode":0}],"nodes":[{"inputs":[[0,0,0,0],[0,0,0,0]],"is_active_output":true,"name":"World Output","outputs":[],"type":"OUTPUT_WORLD_BL"},{"inputs":[[0.05087608844041824,0.05087608844041824,0.05087608844041824,1.0],1.0],"is_active_output":false,"name":"Background","outputs":[[0,0,0,0]],"type":"BACKGROUND_BL"}]}}},"name":"Verge3D_Environment_World"}],"meshes":[{"extensions":{"S8S_v3d_mesh":{"colorLayers":{},"uvLayers":{"UVMap":"TEXCOORD_0"}}},"name":"Sphere","primitives":[{"attributes":{"NORMAL":2,"POSITION":1,"TEXCOORD_0":3},"indices":0,"material":0,"mode":4}]}],"nodes":[{"camera":0,"extensions":{"S8S_v3d_node":{"frustumCulling":true,"groupNames":["Collection"],"renderOrder":0}},"name":"Camera","rotation":[-0.20997299253940582,0.3857799470424652,0.09062844514846802,0.8937962055206299],"scale":[1.0,0.9999998807907104,0.9999998807907104],"translation":[7.358891487121582,4.958309173583984,6.925790786743164]},{"extensions":{"S8S_v3d_node":{"frustumCulling":true,"groupNames":["Collection"],"renderOrder":0,"useCastShadows":true,"useShadows":true}},"mesh":0,"name":"Sphere"},{"extensions":{"S8S_v3d_lights":{"light":0},"S8S_v3d_node":{"frustumCulling":true,"groupNames":["Collection"],"renderOrder":0}},"name":"Light","rotation":[-0.28416627645492554,0.7269423007965088,0.34203392267227173,0.5232754945755005],"scale":[1.0,0.9999998807907104,0.9999998807907104],"translation":[4.076245307922363,5.903861999511719,-1.0054539442062378]}],"scene":0,"scenes":[{"extensions":{"S8S_v3d_scene":{"aaMethod":"AUTO","iblEnvironmentMode":"PMREM","pmremMaxTileSize":512,"shadowMap":{"esmDistanceScale":1.0,"renderReverseSided":false,"renderSingleSided":true,"type":"PCFPOISSON"},"toneMapping":{"exposure":1.0,"look":"NONE","type":"agxBlender"},"worldMaterial":1}},"extras":{"animFrameRate":24,"coordSystem":"Z_UP_RIGHT"},"name":"Scene","nodes":[2,0,1]}]}
