{"accessors":[{"bufferView":0,"componentType":5121,"count":96,"max":[79],"min":[0],"type":"SCALAR"},{"bufferView":1,"componentType":5126,"count":80,"max":[1.0,3.0083537101745605,1.0],"min":[-1.0,-3.1087043285369873,-1.0],"type":"VEC3"},{"bufferView":2,"componentType":5126,"count":80,"max":[0.9238796234130859,0.7685152292251587,0.9238796234130859],"min":[-0.9238796234130859,-0.7232814431190491,-0.9238796234130859],"type":"VEC3"},{"bufferView":3,"componentType":5126,"count":80,"max":[0.0,1.0],"min":[0.0,1.0],"type":"VEC2"},{"bufferView":4,"componentType":5121,"count":96,"max":[79],"min":[0],"type":"SCALAR"},{"bufferView":5,"componentType":5126,"count":80,"max":[1.0,3.0083537101745605,1.0],"min":[-1.0,-3.1087043285369873,-1.0],"type":"VEC3"},{"bufferView":6,"componentType":5126,"count":80,"max":[0.9238796234130859,0.7685152292251587,0.9238796234130859],"min":[-0.9238796234130859,-0.7232814431190491,-0.9238796234130859],"type":"VEC3"},{"bufferView":7,"componentType":5126,"count":80,"max":[0.0,1.0],"min":[0.0,1.0],"type":"VEC2"}],"asset":{"generator":"Verge3D for Blender v4.13.0","version":"2.0"},"bufferViews":[{"buffer":0,"byteLength":96,"byteOffset":0,"target":34963},{"buffer":0,"byteLength":960,"byteOffset":96,"target":34962},{"buffer":0,"byteLength":960,"byteOffset":1056,"target":34962},{"buffer":0,"byteLength":640,"byteOffset":2016,"target":34962},{"buffer":0,"byteLength":96,"byteOffset":2656,"target":34963},{"buffer":0,"byteLength":960,"byteOffset":2752,"target":34962},{"buffer":0,"byteLength":960,"byteOffset":3712,"target":34962},{"buffer":0,"byteLength":640,"byteOffset":4672,"target":34962}],"buffers":[{"byteLength":5312,"uri":"gemma3.bin"}],"cameras":[{"extensions":{"S8S_v3d_camera":{"controls":"ORBIT","enablePan":true,"moveSpeed":1.0,"orbitMaxDistance":100.0,"orbitMaxPolarAngle":3.1415927410125732,"orbitMaxZoom":100.0,"orbitMinDistance":0.0,"orbitMinPolarAngle":0.0,"orbitMinZoom":0.009999999776482582,"orbitTarget":[0.0,0.0,-0.0],"rotateSpeed":1.0,"viewportFitInitialAspect":1.7777777777777777,"viewportFitType":"AUTO"}},"name":"Camera","perspective":{"aspectRatio":1.7777777777777777,"yfov":0.39959648408210363,"zfar":100.0,"znear":0.10000000149011612},"type":"perspective"}],"extensionsUsed":["S8S_v3d_materials","S8S_v3d_camera","S8S_v3d_mesh","S8S_v3d_node","S8S_v3d_scene"],"materials":[{"alphaMode":"BLEND","extensions":{"S8S_v3d_materials":{"gtaoVisible":true,"materialIndex":0,"nodeGraph":{"edges":[{"fromNode":0,"fromOutput":0,"toInput":0,"toNode":1},{"fromNode":2,"fromOutput":0,"toInput":0,"toNode":3},{"fromNode":3,"fromOutput":0,"toInput":0,"toNode":4},{"fromNode":4,"fromOutput":2,"toInput":0,"toNode":5},{"fromNode":5,"fromOutput":0,"toInput":0,"toNode":0}],"nodes":[{"inputs":[[0.005108047742396593,0.8000074625015259,0.001534082111902535,1.0],0.0,0.2181818187236786,1.5,1.0,false,[0.0,0.0,0.0],0.0,0.0,[1.0,0.20000000298023224,0.10000000149011612],0.004999999888241291,1.399999976158142,0.0,0.5,[1.0,1.0,1.0,1.0],0.0,0.0,[0.0,0.0,0.0],0.6613636612892151,0.0,0.029999999329447746,1.5,[1.0,1.0,1.0,1.0],[0.0,0.0,0.0],0.0,0.5,[1.0,1.0,1.0,1.0],[1.0,1.0,1.0,1.0],0.0,0.0,1.3300000429153442],"is_active_output":false,"name":"Principled BSDF","outputs":[[0,0,0,0]],"type":"BSDF_PRINCIPLED_BL"},{"inputs":[[0,0,0,0],[0,0,0,0],[0.0,0.0,0.0],0.0],"is_active_output":true,"name":"Material Output","outputs":[],"type":"OUTPUT_MATERIAL_BL"},{"inputs":[],"is_active_output":false,"name":"Texture Coordinate","object":-1,"outputs":[[0.0,0.0,0.0],[0.0,0.0,0.0],[0.0,0.0,0.0],[0.0,0.0,0.0],[0.0,0.0,0.0],[0.0,0.0,0.0],[0.0,0.0,0.0]],"type":"TEX_COORD_BL"},{"inputs":[[0.0,0.0,0.0],[0.0,0.0,0.0],[0.0,0.0,0.0],[1.0,1.0,1.0]],"is_active_output":false,"name":"Mapping","outputs":[[0.0,0.0,0.0]],"type":"MAPPING_BL","vectorType":"POINT"},{"inputs":[[0.0,0.0,0.0]],"is_active_output":false,"name":"Separate XYZ","outputs":[0.0,0.0,0.0],"type":"SEPXYZ_BL"},{"curve":{"input":[0.0,1.0],"interpolation":"LINEAR","output":[0.0,0.0,0.0,1.0,0.03108511120080948,1.0,0.003342048032209277,1.0]},"inputs":[0.5],"is_active_output":false,"name":"Color Ramp","outputs":[[0.800000011920929,0.800000011920929,0.800000011920929,1.0],0.0],"type":"VALTORGB_BL"}]}}},"name":"Material.001"},{"alphaMode":"BLEND","extensions":{"S8S_v3d_materials":{"gtaoVisible":true,"materialIndex":0,"nodeGraph":{"edges":[{"fromNode":0,"fromOutput":0,"toInput":0,"toNode":1},{"fromNode":2,"fromOutput":0,"toInput":0,"toNode":3},{"fromNode":3,"fromOutput":0,"toInput":0,"toNode":4},{"fromNode":4,"fromOutput":2,"toInput":0,"toNode":5},{"fromNode":5,"fromOutput":0,"toInput":0,"toNode":0}],"nodes":[{"inputs":[[0.005108047742396593,0.8000074625015259,0.001534082111902535,1.0],0.0,0.2181818187236786,1.5,1.0,false,[0.0,0.0,0.0],0.0,0.0,[1.0,0.20000000298023224,0.10000000149011612],0.004999999888241291,1.399999976158142,0.0,0.5,[1.0,1.0,1.0,1.0],0.0,0.0,[0.0,0.0,0.0],0.6613636612892151,0.0,0.029999999329447746,1.5,[1.0,1.0,1.0,1.0],[0.0,0.0,0.0],0.0,0.5,[1.0,1.0,1.0,1.0],[0.08058436214923859,1.0,0.0,1.0],6.799999713897705,0.0,1.3300000429153442],"is_active_output":false,"name":"Principled BSDF","outputs":[[0,0,0,0]],"type":"BSDF_PRINCIPLED_BL"},{"inputs":[[0,0,0,0],[0,0,0,0],[0.0,0.0,0.0],0.0],"is_active_output":true,"name":"Material Output","outputs":[],"type":"OUTPUT_MATERIAL_BL"},{"inputs":[],"is_active_output":false,"name":"Texture Coordinate","object":-1,"outputs":[[0.0,0.0,0.0],[0.0,0.0,0.0],[0.0,0.0,0.0],[0.0,0.0,0.0],[0.0,0.0,0.0],[0.0,0.0,0.0],[0.0,0.0,0.0]],"type":"TEX_COORD_BL"},{"inputs":[[0.0,0.0,0.0],[0.0,0.0,0.0],[0.0,0.0,0.0],[1.0,1.0,1.0]],"is_active_output":false,"name":"Mapping","outputs":[[0.0,0.0,0.0]],"type":"MAPPING_BL","vectorType":"POINT"},{"inputs":[[0.0,0.0,0.0]],"is_active_output":false,"name":"Separate XYZ","outputs":[0.0,0.0,0.0],"type":"SEPXYZ_BL"},{"curve":{"input":[0.0,1.0],"interpolation":"LINEAR","output":[0.0,0.0,0.0,1.0,0.03108511120080948,1.0,0.003342048032209277,1.0]},"inputs":[0.5],"is_active_output":false,"name":"Color Ramp","outputs":[[0.800000011920929,0.800000011920929,0.800000011920929,1.0],0.0],"type":"VALTORGB_BL"}]}}},"name":"Material.002"},{"alphaMode":"OPAQUE","extensions":{"S8S_v3d_materials":{"gtaoVisible":true,"materialIndex":0,"nodeGraph":{"edges":[{"fromNode":1,"fromOutput":0,"toInput":0,"toNode":0}],"nodes":[{"inputs":[[0,0,0,0],[0,0,0,0]],"is_active_output":true,"name":"World Output","outputs":[],"type":"OUTPUT_WORLD_BL"},{"inputs":[[0.05087608844041824,0.05087608844041824,0.05087608844041824,1.0],1.0],"is_active_output":false,"name":"Background","outputs":[[0,0,0,0]],"type":"BACKGROUND_BL"}]}}},"name":"Verge3D_Environment_World"}],"meshes":[{"extensions":{"S8S_v3d_mesh":{"colorLayers":{},"uvLayers":{"UVMap":"TEXCOORD_0"}}},"name":"Circle","primitives":[{"attributes":{"NORMAL":2,"POSITION":1,"TEXCOORD_0":3},"indices":0,"material":0,"mode":4}]},{"extensions":{"S8S_v3d_mesh":{"colorLayers":{},"uvLayers":{"UVMap":"TEXCOORD_0"}}},"name":"Circle.001","primitives":[{"attributes":{"NORMAL":6,"POSITION":5,"TEXCOORD_0":7},"indices":4,"material":1,"mode":4}]}],"nodes":[{"extensions":{"S8S_v3d_node":{"frustumCulling":true,"groupNames":["Collection"],"renderOrder":0,"useCastShadows":true,"useShadows":true}},"mesh":1,"name":"Circle.001","scale":[0.5573588609695435,0.5573588609695435,0.5573588609695435]},{"camera":0,"extensions":{"S8S_v3d_node":{"frustumCulling":true,"groupNames":["Collection"],"renderOrder":0}},"name":"Camera","rotation":[-0.20997299253940582,0.3857799470424652,0.09062844514846802,0.8937962055206299],"scale":[1.0,0.9999998807907104,0.9999998807907104],"translation":[7.358891487121582,4.958309173583984,6.925790786743164]},{"extensions":{"S8S_v3d_node":{"frustumCulling":true,"groupNames":["Collection"],"renderOrder":0,"useCastShadows":true,"useShadows":true}},"mesh":0,"name":"Circle"}],"scene":0,"scenes":[{"extensions":{"S8S_v3d_scene":{"aaMethod":"AUTO","iblEnvironmentMode":"PMREM","pmremMaxTileSize":512,"shadowMap":{"esmDistanceScale":1.0,"renderReverseSided":false,"renderSingleSided":true,"type":"PCFPOISSON"},"toneMapping":{"exposure":1.0,"look":"NONE","type":"agxBlender"},"worldMaterial":2}},"extras":{"animFrameRate":24,"coordSystem":"Z_UP_RIGHT"},"name":"Scene","nodes":[1,2,0]}]}
