{"accessors":[{"bufferView":0,"componentType":5121,"count":60,"max":[39],"min":[0],"type":"SCALAR"},{"bufferView":1,"componentType":5126,"count":40,"max":[0.5250526666641235,1.4142134189605713,1.0897440910339355],"min":[-0.5250526666641235,-1.4142136573791504,-1.0897440910339355],"type":"VEC3"},{"bufferView":2,"componentType":5126,"count":40,"max":[1.0,0.507487952709198,0.6778143048286438],"min":[-1.0,-0.5084272623062134,-0.6778143048286438],"type":"VEC3"},{"bufferView":3,"componentType":5126,"count":40,"max":[0.0,1.0],"min":[0.0,1.0],"type":"VEC2"},{"bufferView":4,"componentType":5121,"count":78,"max":[49],"min":[0],"type":"SCALAR"},{"bufferView":5,"componentType":5126,"count":50,"max":[0.5250526666641235,1.4142134189605713,1.0897440910339355],"min":[-0.5250526666641235,-1.4142136573791504,-1.0897440910339355],"type":"VEC3"},{"bufferView":6,"componentType":5126,"count":50,"max":[1.0,0.507487952709198,1.0],"min":[-1.0,-0.5084272623062134,-0.6778143048286438],"type":"VEC3"},{"bufferView":7,"componentType":5126,"count":50,"max":[0.0,1.0],"min":[0.0,1.0],"type":"VEC2"}],"asset":{"generator":"Verge3D for Blender v4.13.0","version":"2.0"},"bufferViews":[{"buffer":0,"byteLength":60,"byteOffset":0,"target":34963},{"buffer":0,"byteLength":480,"byteOffset":60,"target":34962},{"buffer":0,"byteLength":480,"byteOffset":540,"target":34962},{"buffer":0,"byteLength":320,"byteOffset":1020,"target":34962},{"buffer":0,"byteLength":78,"byteOffset":1340,"target":34963},{"buffer":0,"byteLength":600,"byteOffset":1420,"target":34962},{"buffer":0,"byteLength":600,"byteOffset":2020,"target":34962},{"buffer":0,"byteLength":400,"byteOffset":2620,"target":34962}],"buffers":[{"byteLength":3020,"uri":"gemma5.bin"}],"cameras":[{"extensions":{"S8S_v3d_camera":{"controls":"ORBIT","enablePan":true,"moveSpeed":1.0,"orbitMaxDistance":100.0,"orbitMaxPolarAngle":3.1415927410125732,"orbitMaxZoom":100.0,"orbitMinDistance":0.0,"orbitMinPolarAngle":0.0,"orbitMinZoom":0.009999999776482582,"orbitTarget":[0.0,0.0,-0.0],"rotateSpeed":1.0,"viewportFitInitialAspect":1.7777777777777777,"viewportFitType":"AUTO"}},"name":"Camera","perspective":{"aspectRatio":1.7777777777777777,"yfov":0.39959648408210363,"zfar":100.0,"znear":0.10000000149011612},"type":"perspective"}],"extensions":{"S8S_v3d_lights":{"lights":[{"color":[1.0,1.0,1.0],"decay":2,"distance":31.622776955095866,"intensity":1000.0,"name":"Light","power":1000.0,"profile":"blender","shadow":{"bias":-0.0018,"cameraFar":31.622776955095866,"cameraFov":0,"cameraNear":0.05000000074505806,"enabled":true,"expBias":2.5,"mapSize":512,"radius":1.0,"slopeScaledBias":2.5},"type":"point"}]}},"extensionsUsed":["S8S_v3d_materials","S8S_v3d_camera","S8S_v3d_lights","S8S_v3d_mesh","S8S_v3d_node","S8S_v3d_scene"],"materials":[{"alphaMode":"BLEND","extensions":{"S8S_v3d_materials":{"gtaoVisible":true,"materialIndex":0,"nodeGraph":{"edges":[{"fromNode":0,"fromOutput":0,"toInput":0,"toNode":1},{"fromNode":5,"fromOutput":0,"toInput":0,"toNode":0},{"fromNode":4,"fromOutput":2,"toInput":0,"toNode":5},{"fromNode":3,"fromOutput":0,"toInput":0,"toNode":4},{"fromNode":2,"fromOutput":0,"toInput":0,"toNode":3}],"nodes":[{"inputs":[[0.800000011920929,0.800000011920929,0.800000011920929,1.0],0.0,0.5,1.5,0.9113636016845703,false,[0.0,0.0,0.0],0.0,0.0,[1.0,0.20000000298023224,0.10000000149011612],0.004999999888241291,1.399999976158142,0.0,0.5,[1.0,1.0,1.0,1.0],0.0,0.0,[0.0,0.0,0.0],0.8659090995788574,0.0,0.029999999329447746,1.5,[1.0,1.0,1.0,1.0],[0.0,0.0,0.0],0.0,0.5,[1.0,1.0,1.0,1.0],[1.0,1.0,1.0,1.0],0.0,0.0,1.3300000429153442],"is_active_output":false,"name":"Principled BSDF","outputs":[[0,0,0,0]],"type":"BSDF_PRINCIPLED_BL"},{"inputs":[[0,0,0,0],[0,0,0,0],[0.0,0.0,0.0],0.0],"is_active_output":true,"name":"Material Output","outputs":[],"type":"OUTPUT_MATERIAL_BL"},{"inputs":[],"is_active_output":false,"name":"Texture Coordinate","object":-1,"outputs":[[0.0,0.0,0.0],[0.0,0.0,0.0],[0.0,0.0,0.0],[0.0,0.0,0.0],[0.0,0.0,0.0],[0.0,0.0,0.0],[0.0,0.0,0.0]],"type":"TEX_COORD_BL"},{"inputs":[[0.0,0.0,0.0],[0.0,0.0,0.0],[0.0,0.0,0.0],[1.0,1.0,1.0]],"is_active_output":false,"name":"Mapping","outputs":[[0.0,0.0,0.0]],"type":"MAPPING_BL","vectorType":"POINT"},{"inputs":[[0.0,0.0,0.0]],"is_active_output":false,"name":"Separate XYZ","outputs":[0.0,0.0,0.0],"type":"SEPXYZ_BL"},{"curve":{"input":[0.16136369109153748,1.0],"interpolation":"LINEAR","output":[0.1569761484861374,0.0,0.061529114842414856,1.0,1.0,0.0,0.3023340404033661,1.0]},"inputs":[0.5],"is_active_output":false,"name":"Color Ramp","outputs":[[0.800000011920929,0.800000011920929,0.800000011920929,1.0],0.0],"type":"VALTORGB_BL"}]}}},"name":"Material.001"},{"alphaMode":"OPAQUE","extensions":{"S8S_v3d_materials":{"gtaoVisible":true,"materialIndex":0,"nodeGraph":{"edges":[{"fromNode":1,"fromOutput":0,"toInput":0,"toNode":0}],"nodes":[{"inputs":[[0,0,0,0],[0,0,0,0],[0.0,0.0,0.0],0.0],"is_active_output":true,"name":"Material Output","outputs":[],"type":"OUTPUT_MATERIAL_BL"},{"inputs":[[0.923048198223114,0.0005060432013124228,1.0,1.0],7.19999885559082],"is_active_output":false,"name":"Emission","outputs":[[0,0,0,0]],"type":"EMISSION_BL"}]}}},"name":"Material.002"},{"alphaMode":"OPAQUE","extensions":{"S8S_v3d_materials":{"gtaoVisible":true,"materialIndex":0,"nodeGraph":{"edges":[{"fromNode":1,"fromOutput":0,"toInput":0,"toNode":0}],"nodes":[{"inputs":[[0,0,0,0],[0,0,0,0]],"is_active_output":true,"name":"World Output","outputs":[],"type":"OUTPUT_WORLD_BL"},{"inputs":[[0.05087608844041824,0.05087608844041824,0.05087608844041824,1.0],1.0],"is_active_output":false,"name":"Background","outputs":[[0,0,0,0]],"type":"BACKGROUND_BL"}]}}},"name":"Verge3D_Environment_World"}],"meshes":[{"extensions":{"S8S_v3d_mesh":{"colorLayers":{},"uvLayers":{"UVMap":"TEXCOORD_0"}}},"name":"Plane","primitives":[{"attributes":{"NORMAL":2,"POSITION":1,"TEXCOORD_0":3},"indices":0,"material":0,"mode":4}]},{"extensions":{"S8S_v3d_mesh":{"colorLayers":{},"uvLayers":{"UVMap":"TEXCOORD_0"}}},"name":"Plane.003","primitives":[{"attributes":{"NORMAL":6,"POSITION":5,"TEXCOORD_0":7},"indices":4,"material":1,"mode":4}]}],"nodes":[{"extensions":{"S8S_v3d_node":{"frustumCulling":true,"groupNames":["Collection"],"renderOrder":0,"useCastShadows":true,"useShadows":true}},"mesh":1,"name":"Plane.001","scale":[0.6084274053573608,0.6084274053573608,0.6084274053573608]},{"extensions":{"S8S_v3d_lights":{"light":0},"S8S_v3d_node":{"frustumCulling":true,"groupNames":["Collection"],"renderOrder":0}},"name":"Light","rotation":[-0.28416627645492554,0.7269423007965088,0.34203392267227173,0.5232754945755005],"scale":[1.0,0.9999998807907104,0.9999998807907104],"translation":[4.076245307922363,5.903861999511719,-1.0054539442062378]},{"extensions":{"S8S_v3d_node":{"frustumCulling":true,"groupNames":["Collection"],"renderOrder":0,"useCastShadows":true,"useShadows":true}},"mesh":0,"name":"Plane"},{"camera":0,"extensions":{"S8S_v3d_node":{"frustumCulling":true,"groupNames":["Collection"],"renderOrder":0}},"name":"Camera","rotation":[-0.20997299253940582,0.3857799470424652,0.09062844514846802,0.8937962055206299],"scale":[1.0,0.9999998807907104,0.9999998807907104],"translation":[7.358891487121582,4.958309173583984,6.925790786743164]}],"scene":0,"scenes":[{"extensions":{"S8S_v3d_scene":{"aaMethod":"AUTO","iblEnvironmentMode":"PMREM","pmremMaxTileSize":512,"shadowMap":{"esmDistanceScale":1.0,"renderReverseSided":false,"renderSingleSided":true,"type":"PCFPOISSON"},"toneMapping":{"exposure":1.0,"look":"NONE","type":"agxBlender"},"worldMaterial":2}},"extras":{"animFrameRate":24,"coordSystem":"Z_UP_RIGHT"},"name":"Scene","nodes":[1,3,2,0]}]}
