{"accessors":[{"bufferView":0,"componentType":5121,"count":66,"max":[65],"min":[0],"type":"SCALAR"},{"bufferView":1,"componentType":5126,"count":66,"max":[1.1107473373413086,1.060727596282959,1.018088936805725],"min":[-1.0438892841339111,-1.060727596282959,-0.938087522983551],"type":"VEC3"},{"bufferView":2,"componentType":5126,"count":66,"max":[0.8815909028053284,0.8015148639678955,0.9078527688980103],"min":[-0.8473591208457947,-0.859708845615387,-0.9705944061279297],"type":"VEC3"},{"bufferView":3,"componentType":5126,"count":66,"max":[1.0,1.0],"min":[0.014939737506210804,0.5675170421600342],"type":"VEC2"},{"bufferView":4,"componentType":5121,"count":66,"max":[65],"min":[0],"type":"SCALAR"},{"bufferView":5,"componentType":5126,"count":66,"max":[1.1107473373413086,1.060727596282959,1.018088936805725],"min":[-1.0438892841339111,-1.060727596282959,-0.938087522983551],"type":"VEC3"},{"bufferView":6,"componentType":5126,"count":66,"max":[0.8815909028053284,0.8015148639678955,0.9078527688980103],"min":[-0.8473591208457947,-0.859708845615387,-0.9705944061279297],"type":"VEC3"},{"bufferView":7,"componentType":5126,"count":66,"max":[1.0,1.0],"min":[0.014939737506210804,0.5675170421600342],"type":"VEC2"}],"asset":{"generator":"Verge3D for Blender v4.13.0","version":"2.0"},"bufferViews":[{"buffer":0,"byteLength":66,"byteOffset":0,"target":34963},{"buffer":0,"byteLength":792,"byteOffset":68,"target":34962},{"buffer":0,"byteLength":792,"byteOffset":860,"target":34962},{"buffer":0,"byteLength":528,"byteOffset":1652,"target":34962},{"buffer":0,"byteLength":66,"byteOffset":2180,"target":34963},{"buffer":0,"byteLength":792,"byteOffset":2248,"target":34962},{"buffer":0,"byteLength":792,"byteOffset":3040,"target":34962},{"buffer":0,"byteLength":528,"byteOffset":3832,"target":34962}],"buffers":[{"byteLength":4360,"uri":"gemme2.bin"}],"cameras":[{"extensions":{"S8S_v3d_camera":{"controls":"ORBIT","enablePan":true,"moveSpeed":1.0,"orbitMaxDistance":100.0,"orbitMaxPolarAngle":3.1415927410125732,"orbitMaxZoom":100.0,"orbitMinDistance":0.0,"orbitMinPolarAngle":0.0,"orbitMinZoom":0.009999999776482582,"orbitTarget":[0.0,0.0,-0.0],"rotateSpeed":1.0,"viewportFitInitialAspect":1.7777777777777777,"viewportFitType":"AUTO"}},"name":"Camera","perspective":{"aspectRatio":1.7777777777777777,"yfov":0.39959648408210363,"zfar":100.0,"znear":0.10000000149011612},"type":"perspective"}],"extensions":{"S8S_v3d_lights":{"lights":[{"color":[1.0,1.0,1.0],"decay":2,"distance":31.622776955095866,"intensity":1000.0,"name":"Light","power":1000.0,"profile":"blender","shadow":{"bias":-0.0018,"cameraFar":31.622776955095866,"cameraFov":0,"cameraNear":0.05000000074505806,"enabled":true,"expBias":2.5,"mapSize":512,"radius":1.0,"slopeScaledBias":2.5},"type":"point"}]}},"extensionsUsed":["S8S_v3d_materials","S8S_v3d_camera","S8S_v3d_lights","S8S_v3d_mesh","S8S_v3d_node","S8S_v3d_scene"],"materials":[{"alphaMode":"BLEND","extensions":{"S8S_v3d_materials":{"gtaoVisible":true,"materialIndex":0,"nodeGraph":{"edges":[{"fromNode":0,"fromOutput":0,"toInput":0,"toNode":1},{"fromNode":2,"fromOutput":0,"toInput":0,"toNode":3},{"fromNode":3,"fromOutput":0,"toInput":0,"toNode":4},{"fromNode":4,"fromOutput":2,"toInput":0,"toNode":5},{"fromNode":5,"fromOutput":0,"toInput":0,"toNode":0}],"nodes":[{"inputs":[[0.800000011920929,0.800000011920929,0.800000011920929,1.0],0.0,0.25,1.7000000476837158,0.9386364221572876,false,[0.0,0.0,0.0],0.0,0.0,[1.0,0.20000000298023224,0.10000000149011612],0.05000000074505806,1.399999976158142,0.0,0.5,[1.0,1.0,1.0,1.0],0.0,0.0,[0.0,0.0,0.0],0.800000011920929,0.0,0.029999999329447746,1.5,[1.0,1.0,1.0,1.0],[0.0,0.0,0.0],0.0,0.5,[1.0,1.0,1.0,1.0],[1.0,1.0,1.0,1.0],0.0,0.0,1.3300000429153442],"is_active_output":false,"name":"Principled BSDF","outputs":[[0,0,0,0]],"type":"BSDF_PRINCIPLED_BL"},{"inputs":[[0,0,0,0],[0,0,0,0],[0.0,0.0,0.0],0.0],"is_active_output":true,"name":"Material Output","outputs":[],"type":"OUTPUT_MATERIAL_BL"},{"inputs":[],"is_active_output":false,"name":"Texture Coordinate","object":-1,"outputs":[[0.0,0.0,0.0],[0.0,0.0,0.0],[0.0,0.0,0.0],[0.0,0.0,0.0],[0.0,0.0,0.0],[0.0,0.0,0.0],[0.0,0.0,0.0]],"type":"TEX_COORD_BL"},{"inputs":[[0.0,0.0,0.0],[0.0,0.0,0.0],[0.0,0.0,0.0],[1.0,1.0,1.0]],"is_active_output":false,"name":"Mapping","outputs":[[0.0,0.0,0.0]],"type":"MAPPING_BL","vectorType":"POINT"},{"inputs":[[0.0,0.0,0.0]],"is_active_output":false,"name":"Separate XYZ","outputs":[0.0,0.0,0.0],"type":"SEPXYZ_BL"},{"curve":{"input":[0.18181830644607544,1.0],"interpolation":"LINEAR","output":[0.08884014934301376,0.0,0.22354499995708466,1.0,0.7147912979125977,0.21853992342948914,1.0,1.0]},"inputs":[0.5],"is_active_output":false,"name":"Color Ramp","outputs":[[0.800000011920929,0.800000011920929,0.800000011920929,1.0],0.0],"type":"VALTORGB_BL"}]}}},"name":"Material.001"},{"alphaMode":"BLEND","extensions":{"S8S_v3d_materials":{"gtaoVisible":true,"materialIndex":0,"nodeGraph":{"edges":[{"fromNode":0,"fromOutput":0,"toInput":0,"toNode":1},{"fromNode":2,"fromOutput":0,"toInput":0,"toNode":3},{"fromNode":3,"fromOutput":0,"toInput":0,"toNode":4},{"fromNode":4,"fromOutput":2,"toInput":0,"toNode":5},{"fromNode":5,"fromOutput":0,"toInput":0,"toNode":0}],"nodes":[{"inputs":[[0.800000011920929,0.800000011920929,0.800000011920929,1.0],0.0,0.25,1.7000000476837158,1.0,false,[0.0,0.0,0.0],0.0,0.0,[1.0,0.20000000298023224,0.10000000149011612],0.05000000074505806,1.399999976158142,0.0,0.5,[1.0,1.0,1.0,1.0],0.0,0.0,[0.0,0.0,0.0],0.800000011920929,0.0,0.029999999329447746,1.5,[1.0,1.0,1.0,1.0],[0.0,0.0,0.0],0.0,0.5,[1.0,1.0,1.0,1.0],[0.14327368140220642,0.0,0.28616318106651306,1.0],5.0,0.0,1.3300000429153442],"is_active_output":false,"name":"Principled BSDF","outputs":[[0,0,0,0]],"type":"BSDF_PRINCIPLED_BL"},{"inputs":[[0,0,0,0],[0,0,0,0],[0.0,0.0,0.0],0.0],"is_active_output":true,"name":"Material Output","outputs":[],"type":"OUTPUT_MATERIAL_BL"},{"inputs":[],"is_active_output":false,"name":"Texture Coordinate","object":-1,"outputs":[[0.0,0.0,0.0],[0.0,0.0,0.0],[0.0,0.0,0.0],[0.0,0.0,0.0],[0.0,0.0,0.0],[0.0,0.0,0.0],[0.0,0.0,0.0]],"type":"TEX_COORD_BL"},{"inputs":[[0.0,0.0,0.0],[0.0,0.0,0.0],[0.0,0.0,0.0],[1.0,1.0,1.0]],"is_active_output":false,"name":"Mapping","outputs":[[0.0,0.0,0.0]],"type":"MAPPING_BL","vectorType":"POINT"},{"inputs":[[0.0,0.0,0.0]],"is_active_output":false,"name":"Separate XYZ","outputs":[0.0,0.0,0.0],"type":"SEPXYZ_BL"},{"curve":{"input":[0.18181830644607544,1.0],"interpolation":"LINEAR","output":[0.08884014934301376,0.0,0.22354499995708466,1.0,0.7147912979125977,0.21853992342948914,1.0,1.0]},"inputs":[0.5],"is_active_output":false,"name":"Color Ramp","outputs":[[0.800000011920929,0.800000011920929,0.800000011920929,1.0],0.0],"type":"VALTORGB_BL"}]}}},"name":"Material.002"},{"alphaMode":"OPAQUE","extensions":{"S8S_v3d_materials":{"gtaoVisible":true,"materialIndex":0,"nodeGraph":{"edges":[{"fromNode":1,"fromOutput":0,"toInput":0,"toNode":0}],"nodes":[{"inputs":[[0,0,0,0],[0,0,0,0]],"is_active_output":true,"name":"World Output","outputs":[],"type":"OUTPUT_WORLD_BL"},{"inputs":[[0.05087608844041824,0.05087608844041824,0.05087608844041824,1.0],1.0],"is_active_output":false,"name":"Background","outputs":[[0,0,0,0]],"type":"BACKGROUND_BL"}]}}},"name":"Verge3D_Environment_World"}],"meshes":[{"extensions":{"S8S_v3d_mesh":{"colorLayers":{},"uvLayers":{"UVMap":"TEXCOORD_0"}}},"name":"Icosphere.001","primitives":[{"attributes":{"NORMAL":2,"POSITION":1,"TEXCOORD_0":3},"indices":0,"material":0,"mode":4}]},{"extensions":{"S8S_v3d_mesh":{"colorLayers":{},"uvLayers":{"UVMap":"TEXCOORD_0"}}},"name":"Icosphere.002","primitives":[{"attributes":{"NORMAL":6,"POSITION":5,"TEXCOORD_0":7},"indices":4,"material":1,"mode":4}]}],"nodes":[{"extensions":{"S8S_v3d_lights":{"light":0},"S8S_v3d_node":{"frustumCulling":true,"groupNames":["Collection"],"renderOrder":0}},"name":"Light","rotation":[-0.28416627645492554,0.7269423007965088,0.34203392267227173,0.5232754945755005],"scale":[1.0,0.9999998807907104,0.9999998807907104],"translation":[4.076245307922363,5.903861999511719,-1.0054539442062378]},{"extensions":{"S8S_v3d_node":{"frustumCulling":true,"groupNames":["Collection"],"hidden":true,"renderOrder":0,"useCastShadows":true,"useShadows":true}},"mesh":1,"name":"Icosphere.002","rotation":[0.3151116967201233,0.0,-0.0,0.9490545988082886],"scale":[0.6959545016288757,0.9475064873695374,0.643003523349762],"translation":[0.0,-0.12587225437164307,-0.0]},{"extensions":{"S8S_v3d_node":{"frustumCulling":true,"groupNames":["Collection"],"hidden":true,"renderOrder":0,"useCastShadows":true,"useShadows":true}},"mesh":0,"name":"Icosphere.001","rotation":[0.3151116967201233,0.0,-0.0,0.9490545988082886],"scale":[1.2351031303405762,1.6815297603607178,1.1411314010620117],"translation":[0.0,-0.12587225437164307,-0.0]},{"camera":0,"extensions":{"S8S_v3d_node":{"frustumCulling":true,"groupNames":["Collection"],"renderOrder":0}},"name":"Camera","rotation":[-0.20997299253940582,0.3857799470424652,0.09062844514846802,0.8937962055206299],"scale":[1.0,0.9999998807907104,0.9999998807907104],"translation":[7.358891487121582,4.958309173583984,6.925790786743164]}],"scene":0,"scenes":[{"extensions":{"S8S_v3d_scene":{"aaMethod":"AUTO","iblEnvironmentMode":"PMREM","pmremMaxTileSize":512,"shadowMap":{"esmDistanceScale":1.0,"renderReverseSided":false,"renderSingleSided":true,"type":"PCFPOISSON"},"toneMapping":{"exposure":1.0,"look":"NONE","type":"agxBlender"},"worldMaterial":2}},"extras":{"animFrameRate":24,"coordSystem":"Z_UP_RIGHT"},"name":"Scene","nodes":[0,3,1,2]}]}
